<?xml version="1.0" encoding="utf-8"?>
<!-- Generator: Adobe Illustrator 21.1.0, SVG Export Plug-In . SVG Version: 6.00 Build 0)  -->
<svg version="1.1" id="Layer_1" xmlns="http://www.w3.org/2000/svg" xmlns:xlink="http://www.w3.org/1999/xlink" x="0px" y="0px"
	 viewBox="0 0 26.8 30.1" style="enable-background:new 0 0 26.8 30.1;" xml:space="preserve">
<style type="text/css">
	.st0{fill:#1A936F;}
</style>
<title>Asset 4</title>
<g id="Layer_2">
	<g id="Outside">
		<g id="Panel_2">
			<path class="st0" d="M26.8,10.5c0-2-1.1-3.9-3-4.7c-0.3-1.7-1.7-3.1-3.4-3.3c0-0.2,0-0.4-0.1-0.5C20,1,19.1,0.2,18,0
				c-0.7-0.1-1.3,0.1-1.9,0.5C15.6,0.2,15,0,14.4,0c-1.5,0-2.7,1.1-2.9,2.5h-0.2c0-0.1-0.1-0.2-0.2-0.3C10.6,0.8,9.3-0.1,7.8,0
				C7,0.2,6.2,0.7,5.9,1.5C5.3,1.2,4.5,1.1,3.8,1.4C3,1.7,2.5,2.3,2.2,3c-0.4,1.1-0.4,2.4,0,3.5c-0.6,0.4-1,1-1.3,1.7
				c-0.4,1.3-0.3,2.8,0.4,4c0.1,0.1,0.1,0.3,0.2,0.4c-0.6,0.4-1.1,1.1-1.3,1.8c-0.4,1.3-0.2,2.7,0.5,3.8C1,18.8,1.5,19.3,2,19.7
				c-0.2,0.7,0,1.5,0.4,2.2c0.6,1,1.5,1.6,2.6,1.8c1.7,3.2,3.8,4.6,7.1,6l0,0c0.5,0.3,1,0.4,1.5,0.4c0.3,0,0.6,0,0.9-0.1l0,0
				c0.2-0.1,0.5-0.2,0.7-0.3c0.9-0.5,1.4-1.6,1-2.6c-1-2.9-0.9-5.1,0.2-6.5c2-2.4,6.6-1.8,6.6-1.8l0.5,0.1v-0.5c0.1-1-0.1-2-0.7-2.9
				l-0.2-0.2c0.3-0.1,0.6-0.1,0.8-0.3C25.5,14.2,26.7,12.4,26.8,10.5z M5.8,22.9l-0.2-0.3H5.3c-0.9,0-1.7-0.5-2.1-1.2
				c-0.3-0.5-0.4-1.1-0.2-1.6l0.2-0.4l-0.3-0.2c-0.5-0.4-0.9-0.9-1.2-1.4c-0.5-0.9-0.7-1.9-0.4-2.9c0.2-0.6,0.7-1.2,1.3-1.4l0.6-0.3
				l-0.4-0.5c-0.2-0.2-0.3-0.5-0.5-0.8c-0.5-1-0.7-2.2-0.3-3.2c0.2-0.6,0.6-1.1,1.1-1.3L3.5,7L3.3,6.5l0,0c-0.5-1-0.5-2.1-0.1-3.1
				c0.2-0.5,0.5-0.8,1-1c0.6-0.2,1.3,0,1.8,0.4l0.6,0.4l0.2-0.7c0-0.7,0.5-1.3,1.2-1.4c1,0,1.9,0.7,2.2,1.6L10.4,3l0,0L10,3.2
				L9.8,3.3L9.7,3.4C9.5,3.6,9.3,3.8,9.2,4.1v0.1C9.1,4.2,9,4.4,8.9,4.5v0.2L8.8,4.9c0,0.1-0.1,0.2-0.1,0.2L8.6,5.3
				c0,0.1-0.1,0.2-0.1,0.3v0.1c0,0.1,0,0.3,0,0.4s0,0.2,0,0.3C6.2,6.8,4.7,9,5.1,11.3c0.1,0.3,0.2,0.7,0.3,1
				c-1.2,1.3-1.1,3.3,0.2,4.6c0.2,0.2,0.5,0.4,0.8,0.5c0,0.3,0,0.5,0,0.8c0,0.1,0,0.2,0,0.3s0,0.4,0,0.5s0,0.2,0,0.3s0,0.3,0.1,0.5
				v0.3c0,0.1,0,0.3,0.1,0.4l0.1,0.3c0,0.1,0.1,0.3,0.1,0.4l0.1,0.3c0,0.1,0.1,0.3,0.1,0.4l0,0.3c0.1,0.2,0.1,0.3,0.2,0.5l0.1,0.1
				c0.1,0.2,0.2,0.4,0.3,0.6l0.1,0.2l0.2,0.5L8,24.4l0.2,0.4L8.3,25l0.2,0.4l0.2,0.3L9,26l0.2,0.3l0.3,0.4L9.7,27l0.3,0.4l0.2,0.2
				l0,0C8.2,26.5,6.7,24.9,5.8,22.9L5.8,22.9z M20.9,14.2h-0.1l-0.5,0.1l-0.1,1.1h0.5c0.6,0,1.1,0.2,1.5,0.6c0.3,0.5,0.5,1,0.6,1.6
				c-1.4-0.1-5.1-0.1-7,2.2c-1.4,1.7-1.5,4.2-0.4,7.5c0.2,0.5-0.1,1.1-0.6,1.3h-0.1c-0.9-2.2-1.6-4.4-2-6.7l0,0
				c-0.3-1.4-0.4-2.8-0.3-4.3c0.7-1.2,2.9-1.3,2.9-1.3c0.3-0.1,0.4-0.4,0.4-0.6c0-0.2-0.2-0.3-0.4-0.4l0,0c-1,0-1.9,0.3-2.8,0.8
				c0.1-0.9,0.4-1.9,0.7-2.8l0.1-0.1c0-0.1,0-0.1,0-0.2c0.3-0.8,0.8-1.6,1.3-2.4c1.4-0.3,2.8-0.2,4.2,0.3c0.1,0,0.2,0.1,0.3,0
				c0.3,0,0.5-0.2,0.5-0.5c0-0.2-0.1-0.4-0.3-0.5c-1.1-0.4-2.4-0.6-3.6-0.5c0.6-0.6,1.3-1.2,2-1.6c0.8-0.2,1.6-0.1,2.2,0.3
				c0.1,0,0.2,0.1,0.3,0.1c0.3,0,0.6-0.1,0.6-0.4c0-0.2-0.1-0.5-0.3-0.6c-0.7-0.4-1.6-0.6-2.4-0.6c0.1-0.4,0.2-0.7,0.5-1
				c0.2-0.2,0.1-0.6-0.1-0.7S17.9,4.8,17.8,5c-0.4,0.6-0.7,1.3-0.7,2c-1.8,1.2-3.2,2.8-4.1,4.7c-0.1,0.1-0.1,0.3-0.2,0.5
				c-0.9-0.6-1.3-1.7-1.2-2.8c0-0.3-0.3-0.5-0.6-0.5c-0.2,0-0.4,0.1-0.4,0.3c-0.2,1.6,0.5,3.1,1.8,3.9c-0.4,1.3-0.7,2.7-0.8,4.1v0.1
				c-0.1,1.3,0,2.5,0.2,3.8c-0.4-0.2-0.8-0.5-1-0.9c-0.1-0.3-0.5-0.4-0.7-0.2s-0.4,0.5-0.2,0.7l0,0c0.5,0.8,1.2,1.4,2.1,1.6
				c0.4,2.2,1,4.4,1.9,6.5c-0.3,0-0.6-0.1-0.9-0.3l0,0l-0.1-0.1c-0.1,0-0.1-0.1-0.2-0.1l0,0l-0.2-0.2C9.2,24.3,7.6,21.6,7.7,17v-0.4
				l-0.4-0.1c-1.1-0.4-1.7-1.6-1.3-2.8c0.1-0.4,0.4-0.7,0.7-1L7,12.4L6.8,12C5.9,10.5,6.4,8.6,8,7.7c0.4-0.3,0.9-0.4,1.5-0.4h0.6
				L9.6,6.8c0-0.2-0.1-0.4-0.1-0.6c0-0.2,0-0.3,0-0.5V5.6c0-0.1,0.1-0.2,0.1-0.3V5.2c0.1-0.1,0.1-0.3,0.2-0.4l0,0
				c0.2-0.3,0.4-0.5,0.6-0.7L10.5,4L11,3.8l0.2-0.1c0.3-0.1,0.5-0.2,0.8-0.2h0.5V3c0-1.1,0.9-1.9,2-1.9c0.5,0,0.9,0.2,1.3,0.5
				l0.4,0.3l0.4-0.4C17,1.1,17.5,1,18,1c0.7,0.1,1.2,0.6,1.4,1.2c0.1,0.2,0.1,0.4,0.1,0.7v0.6h0.6c1.5,0,2.8,1.2,2.9,2.7v0.3
				l0.3,0.1c1.6,0.6,2.6,2.1,2.6,3.8c-0.1,1.5-1,2.9-2.5,3.5C22.5,14.3,21.7,14.4,20.9,14.2L20.9,14.2z"/>
		</g>
	</g>
</g>
</svg>
