<?xml version="1.0" encoding="utf-8"?>
<!-- Generator: Adobe Illustrator 21.1.0, SVG Export Plug-In . SVG Version: 6.00 Build 0)  -->
<svg version="1.1" id="Layer_1" xmlns="http://www.w3.org/2000/svg" xmlns:xlink="http://www.w3.org/1999/xlink" x="0px" y="0px"
	 viewBox="0 0 33.9 33.6" style="enable-background:new 0 0 33.9 33.6;" xml:space="preserve">
<style type="text/css">
	.st0{fill:#1A936F;}
</style>
<title>Asset 5</title>
<g id="Layer_2">
	<g id="Outside">
		<g id="Panel_2">
			<path class="st0" d="M33.2,15.4c0.8-0.9,1-2.3,0.3-3.4c-0.8-1.3-2.1-2.1-3.6-2.4h-0.4L30,9.1c0.9-0.7,1.4-1.8,1.4-3
				c-0.1-1.1-0.7-2-1.5-2.7l0,0c-2.4-1.6-5,0.3-5.1,0.4l-0.1,0.1L24.5,4c-0.2-1.3-1-2.4-2.1-3.1c-1.1-0.9-2.7-1.1-4-0.5
				c-0.2,0.1-0.5,0.3-0.7,0.5c-0.6-0.2-1.3-0.2-1.9,0c-0.9,0.3-1.5,1.1-1.6,2c-0.1,1,0.4,2,1.3,2.5c1.1,0.7,2.1,1.7,2.7,2.9
				c-0.5,0-1,0-1.5,0.2c-3,1.1-14.5,18-16.6,23.5c-0.2,0.4-0.1,0.9,0.2,1.3c0.2,0.2,0.5,0.3,0.8,0.3c0.2,0,0.3,0,0.5-0.1
				C7.1,31.4,24.1,20,25.1,17.1c0.1-0.4,0.2-0.8,0.2-1.2c1.1,0.5,2.1,1.2,2.8,2.2c0.6,0.9,1.6,1.4,2.7,1.4l0,0
				c0.9,0,1.7-0.4,2.1-1.1c0.5-0.9,0.5-1.9,0-2.8L33.2,15.4z M32.5,12.6c0.4,0.6,0.3,1.4-0.2,1.9l-0.1-0.1l-0.1-0.1L31.8,14
				l-0.1-0.1c-1.5-1.5-3.6-2.4-5.7-2.3c-0.6,0-1.3,0.1-1.9,0.2l0.2-0.1l0.3-0.1l0.3-0.1l0.3-0.1l0.5-0.2l0.3-0.1l0.3-0.1l0.3-0.1
				l0.3-0.1l0.5-0.1h0.3c0.7-0.1,1.3-0.1,2,0C30.8,10.9,31.9,11.6,32.5,12.6L32.5,12.6z M25.5,4.6c0.3-0.2,2.2-1.4,3.7-0.4
				c0.6,0.5,0.9,1.1,1,1.8c0,0.8-0.4,1.6-1.1,2.1c-0.5,0.5-1,0.9-1.6,1.2h-0.2l-0.5,0.1l-0.3,0.1l-0.4,0.1l-0.3,0.1l-0.3,0.1
				L25.1,10l-0.3,0.1l-0.4,0.1l-0.2,0.1c-0.5,0.2-1,0.4-1.4,0.6l0,0c0.4-0.7,0.7-1.5,1-2.3l0.1-0.2C23.9,8.3,24,8.1,24,8l0.2,0
				c0-0.1,0.1-0.3,0.1-0.4l0.1-0.3c0-0.1,0.1-0.3,0.1-0.4V6.6c0-0.1,0-0.3,0.1-0.4s0-0.1,0-0.2C24.8,5.5,25.1,5.1,25.5,4.6L25.5,4.6
				z M18.9,1.4c0.9-0.4,2-0.3,2.8,0.4h0.1c0.9,0.5,1.5,1.5,1.7,2.5c0.1,0.5,0.1,0.9,0.1,1.4l0,0c-0.1,0.9-0.3,1.8-0.7,2.7
				c0-0.6,0-1.1-0.1-1.7l0,0c0-0.1,0-0.2-0.1-0.4l-0.1-0.2V5.9l-0.1-0.3V5.5c-0.3-0.9-0.8-1.7-1.4-2.3L21,3.1l-0.3-0.3l-0.2-0.2
				l-0.2-0.2L19.8,2l0,0l-0.3-0.2l0,0C19.3,1.6,19.1,1.5,18.9,1.4L18.9,1.4z M16,4.4c-0.5-0.3-0.8-0.9-0.7-1.4c0-0.5,0.4-0.9,0.8-1
				c0.2-0.1,0.4-0.1,0.6-0.1c0.3,0,0.6,0.1,0.9,0.2l0,0l0.3,0.1L18,2.3l0.2,0.1h0.1c0.2,0.1,0.5,0.3,0.7,0.5l0,0l0,0
				c0.2,0.2,0.5,0.4,0.7,0.6l0.2,0.2C20,3.9,20.2,4,20.3,4.2l0.2,0.2c0.1,0.2,0.2,0.3,0.3,0.5L20.9,5c0.1,0.2,0.2,0.4,0.3,0.6v0.1
				c0.4,1.2,0.5,2.4,0.3,3.7c-0.1,0.8-0.4,1.7-0.7,2.5c-0.1-0.4-0.2-0.7-0.3-1v-0.2c-0.1-0.3-0.2-0.6-0.3-0.8V9.8
				C18.9,6.7,17.3,5.1,16,4.4z M24,16.7c-0.3,0.9-2.5,2.7-5.4,4.9h-0.1c-1.1-0.1-2.1-0.6-2.8-1.4c-0.2-0.3-0.5-0.3-0.8-0.1
				c-0.3,0.2-0.3,0.5-0.1,0.8c0.7,0.9,1.6,1.5,2.6,1.7c-1.8,1.3-3.9,2.7-5.9,4c-0.1-0.1-0.2-0.1-0.3-0.1c-0.7-0.1-1.3-0.4-1.7-0.9
				c-0.2-0.3-0.5-0.3-0.8-0.1c-0.3,0.2-0.3,0.5-0.1,0.8l0,0c0.4,0.6,1,1,1.7,1.2c-2.9,1.9-5.9,3.6-9.1,5.1l0,0l0,0
				c0.7-1.7,1.5-3.3,2.4-4.8l0.1,0.1C4,28,4.4,28.2,4.9,28.5c0.2,0.2,0.6,0.1,0.8-0.1c0.2-0.2,0.1-0.6-0.1-0.8
				c-0.1,0-0.1-0.1-0.2-0.1C5,27.3,4.6,27,4.3,26.8c-0.1,0-0.1-0.1-0.2-0.1c1.3-2.2,3-4.7,4.6-7.1c0.2,0.6,0.6,1.1,1.1,1.5
				c0.3,0.2,0.6,0.1,0.8-0.1c0.2-0.3,0.1-0.6-0.1-0.8c-0.5-0.4-0.8-1.1-0.9-1.7v-0.1c1.3-1.8,2.5-3.5,3.6-4.9c0.3,1,0.9,2,1.7,2.6
				c0.3,0.2,0.6,0.1,0.8-0.1c0.2-0.3,0.1-0.6-0.1-0.8c-0.8-0.7-1.3-1.7-1.4-2.8c0,0,0,0,0-0.1c0.8-1.1,1.7-2,2.8-2.8
				c0.3-0.1,0.6-0.2,0.9-0.1c0.3,0,0.6,0.1,0.9,0.1c0.3,0.6,0.5,1.2,0.7,1.9v0.1c0.1,0.3,0.2,0.6,0.2,0.9v0.2
				c0.1,0.4,0.2,0.7,0.3,1.1c0,0,0,0,0,0.1v0.1l0,0l0,0l0,0V14l0,0l0,0l0,0l0,0l0,0l0,0l0,0l0,0l1,0.3l0.2,0.1l0.7,0.2l0.2,0.1
				l0.7,0.2h0.1l0.8,0.3l0,0C24.1,15.5,24.2,16.1,24,16.7L24,16.7z M32,17.7c-0.3,0.4-0.7,0.6-1.1,0.6l0,0c-0.7,0-1.3-0.4-1.7-0.9
				c-1.2-1.4-2.7-2.4-4.3-3l0,0h-0.1l-0.5-0.2L23.8,14l-0.5-0.2l-0.7-0.2l-0.3-0.1l0.1-0.1l0,0c1.8-0.6,4.9-1.3,7.5,0.6
				c0.1,0.1,0.3,0.2,0.4,0.3l0.2,0.1c0.4,0.4,0.8,0.8,1.2,1.3l0.1,0.1l0,0C32.3,16.4,32.3,17.1,32,17.7L32,17.7z"/>
		</g>
	</g>
</g>
</svg>
