<?xml version="1.0" encoding="utf-8"?>
<!-- Generator: Adobe Illustrator 21.1.0, SVG Export Plug-In . SVG Version: 6.00 Build 0)  -->
<svg version="1.1" id="Layer_1" xmlns="http://www.w3.org/2000/svg" xmlns:xlink="http://www.w3.org/1999/xlink" x="0px" y="0px"
	 viewBox="0 0 35.1 33.7" style="enable-background:new 0 0 35.1 33.7;" xml:space="preserve">
<style type="text/css">
	.st0{fill:#1A936F;}
</style>
<title>Asset 3</title>
<g id="Layer_2">
	<g id="Outside">
		<path class="st0" d="M14.4,8.9c0.1,0,0.1,0,0.2,0c0.3,0,0.6-0.3,0.6-0.6c0-0.2-0.1-0.4-0.4-0.5c-0.9-0.2-1.5-1.2-1.3-2.1
			s1.2-1.5,2.1-1.3c0.1,0,0.3,0.1,0.4,0.2c0.3,0.1,0.7-0.1,0.7-0.4c0.1-0.3,0-0.6-0.3-0.7c-1.5-0.5-3.2,0.3-3.7,1.8
			C12.3,6.7,13,8.3,14.4,8.9z"/>
		<path class="st0" d="M31.8,10.8c-0.3,0.1-0.4,0.5-0.3,0.8l0,0c0.4,0.9,0,1.9-0.9,2.3c-0.9,0.4-1.9,0-2.3-0.9
			c-0.2-0.3-0.5-0.4-0.8-0.2c-0.2,0.1-0.3,0.4-0.3,0.7c0.6,1.5,2.3,2.3,3.8,1.7c1.5-0.6,2.3-2.3,1.7-3.8c0-0.1-0.1-0.2-0.1-0.3
			C32.5,10.8,32.1,10.7,31.8,10.8L31.8,10.8z"/>
		<path class="st0" d="M23.5,9.1c-0.3,0.2-0.4,0.5-0.2,0.8c0.5,0.8,0.3,1.9-0.5,2.4c-0.8,0.5-1.9,0.3-2.4-0.5c0-0.1-0.1-0.1-0.1-0.2
			c-0.1-0.3-0.4-0.5-0.7-0.4c-0.3,0.1-0.5,0.4-0.4,0.7c0,0.1,0.1,0.2,0.2,0.3c0.8,1.4,2.5,2,4,1.2c1.4-0.8,2-2.5,1.2-4
			c0-0.1-0.1-0.1-0.1-0.2C24.2,9.1,23.8,9,23.5,9.1L23.5,9.1z"/>
		<path class="st0" d="M18.4,10.2c1.5,0.7,3.2,0.1,3.9-1.4c0.2-0.3,0-0.7-0.2-0.8c-0.3-0.2-0.7,0-0.8,0.2c0,0,0,0,0,0.1
			c-0.4,0.9-1.5,1.2-2.3,0.8c-0.9-0.4-1.2-1.5-0.8-2.3c0.1-0.3,0-0.7-0.3-0.8c-0.3-0.1-0.6,0-0.8,0.3C16.3,7.8,16.9,9.5,18.4,10.2z"
			/>
		<path class="st0" d="M13.9,13.6c1.5,0.6,3.2,0,3.9-1.5l0,0c0.2-0.3,0.1-0.7-0.2-0.8c-0.3-0.2-0.7-0.1-0.8,0.2c0,0,0,0.1-0.1,0.1
			c-0.4,0.9-1.4,1.3-2.3,0.9c-0.9-0.4-1.3-1.4-0.9-2.3c0.2-0.3,0.1-0.7-0.2-0.8c-0.3-0.2-0.7-0.1-0.8,0.2c0,0,0,0.1-0.1,0.1
			C11.8,11.2,12.5,13,13.9,13.6z"/>
		<path class="st0" d="M21.5,7.3h0.3c1.6,0,2.9-1.3,2.9-3c0-0.7-0.2-1.3-0.6-1.8c-0.2-0.3-0.6-0.4-0.8-0.2c-0.3,0.2-0.4,0.6-0.2,0.8
			l0.1,0.1C23.8,3.9,23.7,5,23,5.6l0,0C22.6,5.9,22.2,6,21.7,6s-0.9-0.3-1.2-0.6c-0.2-0.3-0.6-0.4-0.8-0.2S19.3,5.8,19.5,6l0.1,0.1
			C20,6.9,20.7,7.3,21.5,7.3z"/>
		<path class="st0" d="M9.2,12.7c0.1-0.3,0-0.7-0.3-0.8s-0.7,0-0.8,0.3c0,0,0,0,0,0.1c-0.4,0.9-1.4,1.3-2.3,0.9
			C5,12.8,4.6,11.8,4.9,11c0.1-0.3,0-0.7-0.3-0.8s-0.7,0-0.8,0.3c0,0,0,0,0,0.1c-0.6,1.5,0.2,3.2,1.7,3.8C7,14.9,8.6,14.2,9.2,12.7
			L9.2,12.7z"/>
		<path class="st0" d="M34.2,11c0.4-1.1,0.1-2.3-0.8-3.2C32.8,7.3,32,7,31.2,7c-0.1-0.4-0.4-0.7-0.6-1c-0.7-0.7-1.8-1-2.8-0.7
			c0-0.1,0-0.1,0-0.2c0-2.4-2-4.3-4.4-4.2c-0.4,0-0.8,0.1-1.2,0.2c-1.4-1.4-3.7-1.5-5.1-0.1c-0.1,0.1-0.2,0.2-0.3,0.3
			C16.2,1,15.6,0.8,15,0.8c-2.2,0-4,1.7-4.1,3.9c0,0,0,0,0,0.1l0,0c-0.6,0.3-1.1,0.7-1.5,1.3C8.1,5.8,6.9,6,6,6.9
			C4.9,6.5,3.6,6.8,2.8,7.6C2.2,8.2,1.9,9,1.9,9.9c-0.4,0.1-0.7,0.4-1,0.6c-1.1,1.1-1.1,2.8-0.1,3.9l0.1,0.1C1.2,14.8,1.6,15,2,15.2
			c0,0.9,0.4,1.7,1,2.3s1.4,1,2.3,1c0,0.6,0.3,1.1,0.7,1.5c0.6,0.6,1.6,0.9,2.5,0.6c2.5,0.1,5.8,5.5,6.2,11.8
			c0.1,0.8,0.7,1.4,1.5,1.4h3c0.8,0,1.4-0.6,1.5-1.3V32c0.8-7.6,2.5-11.5,5.1-11.6c1.3,0.7,2.9,0.5,4-0.5c0.2-0.2,0.4-0.5,0.6-0.7
			c0.7,0,1.5-0.3,2-0.8c0.6-0.6,0.8-1.4,0.7-2.3c0.4-0.2,0.8-0.4,1.1-0.7C35.4,14.2,35.4,12.3,34.2,11L34.2,11z M11.6,5.9
			C11.9,5.8,12,5.5,12,5.3c0-0.1,0-0.2,0-0.3c0-1.6,1.3-2.8,2.9-2.8c0.6,0,1.2,0.2,1.6,0.5c0.3,0.2,0.6,0.1,0.8-0.2l0,0
			c0.7-1.2,2.2-1.6,3.3-0.9c0.3,0.2,0.5,0.4,0.7,0.6s0.5,0.3,0.7,0.2c0.4-0.2,0.8-0.3,1.3-0.3c1.7,0,3.1,1.3,3.1,3
			c0,0.4-0.1,0.8-0.3,1.2l0,0v0.1l0,0c0,0,0,0,0,0.1c0,0,0,0.1,0,0.2l0,0c0,0.1,0,0.1,0,0.2V7c0,0,0,0.1,0.1,0.1
			c0,0.1,0.1,0.1,0.2,0.2C26.8,7.3,27,7.6,27,8c0,0.4-0.2,0.7-0.5,0.9s-0.4,0.5-0.2,0.8l0,0c0.2,0.3,0.3,0.6,0.3,1
			c0,0.8-0.5,1.5-1.2,1.8c-0.3,0.1-0.4,0.5-0.3,0.8c0.1,0.2,0.1,0.4,0.1,0.7c0,1.1-0.9,1.9-1.9,1.9l0,0c-0.1,0-0.2,0-0.3,0h-0.1
			c-0.1,0-0.2-0.1-0.3-0.1l0,0c-0.4-0.1-0.8-0.4-1-0.8c-0.1-0.2-0.3-0.3-0.5-0.3s-0.4,0.1-0.5,0.3c-0.3,0.5-0.8,0.9-1.3,1.1l-0.3,0
			h-0.1l-0.2,0.1h-0.2h-0.2h-0.4h-0.4h-0.3h-0.1l-0.3-0.1l0,0L16.5,16l0,0c-0.5-0.2-0.9-0.6-1.2-1c-0.1-0.1-0.2-0.2-0.4-0.2h-0.1
			c-0.1,0-0.3,0-0.4,0.1c-0.2,0.1-0.3,0.2-0.5,0.3l0,0c-0.2,0.1-0.3,0.1-0.5,0.1l0,0c-0.2,0-0.3,0.1-0.5,0.1c-1.3,0-2.4-1-2.4-2.3
			c0-0.5,0.2-1,0.5-1.4c0.2-0.3,0.1-0.6-0.1-0.8l0,0c-0.8-0.5-1.2-1.3-1.3-2.2c0-0.1,0-0.3,0-0.4V8c0-0.1,0-0.2,0.1-0.3V7.6
			C9.8,7.5,9.9,7.4,10,7.3l0,0C10.3,6.6,10.9,6.1,11.6,5.9z M20.2,16.9c0.3-0.2,0.6-0.4,0.8-0.7c0.3,0.2,0.5,0.4,0.9,0.6l0.1,0.1
			c0.1,0.1,0.2,0.2,0.3,0.3c-0.7,0.9-1.4,1.8-2,2.9C20.3,18.9,20.3,17.9,20.2,16.9L20.2,16.9z M16.3,23.2c-0.8-1.8-1.9-3.5-3.2-5
			c0.2-0.1,0.4-0.2,0.5-0.4c0.3-0.3,0.5-0.8,0.5-1.2c0.1-0.1,0.3-0.2,0.4-0.3l0.2-0.1c0.3,0.3,0.6,0.6,1,0.8
			C16.2,19,16.4,21.1,16.3,23.2L16.3,23.2z M6.8,19.1c-0.3-0.3-0.4-0.8-0.3-1.2c0.1-0.3-0.1-0.6-0.4-0.7H6H5.7c-0.7,0.2-1.5,0-2-0.6
			c-0.5-0.5-0.7-1.2-0.6-1.8C3.2,14.4,3,14.1,2.7,14c0,0,0,0-0.1,0c-0.4,0-0.7-0.2-1-0.5c-0.6-0.6-0.6-1.6,0-2.2l0,0
			c0.2-0.2,0.6-0.4,0.9-0.4s0.6-0.4,0.5-0.7l0,0C2.9,9.5,3.1,8.9,3.6,8.4C4.2,7.8,5.1,7.7,5.9,8c0.3,0.1,0.5,0,0.7-0.2l0.2-0.2
			C7.2,7.2,8,7,8.7,7.2v0.1c0,0.1-0.1,0.3-0.1,0.4s0,0.1,0,0.2c-0.2,1.3,0.3,2.7,1.3,3.5c-0.3,0.5-0.4,1-0.4,1.6c0,0.1,0,0.2,0,0.4
			v0.1c0,0,0,0.1,0,0.2v0.1c0,0.1,0,0.1,0.1,0.2l0.1,0.1l0.1,0.2l0.1,0.1l0.1,0.2l0.1,0.1L10,15l0.1,0.1l0.1,0.1l0.1,0.1l0.1,0.1
			l0.1,0.1l0.1,0.1l0.1,0.1L11,16l0.1,0.1l0.1,0.1l0.1,0.1l0.2,0.1l0.2,0.1l0.2,0.1h0.2h0.2h0.2h0.2h0.2H13c0,0.1-0.1,0.2-0.2,0.3
			c-0.2,0.2-0.4,0.2-0.6,0.1c-0.3-0.1-0.7,0.1-0.7,0.4l0,0c-0.1,0.2-0.2,0.4-0.3,0.6c-0.4,0.4-0.9,0.5-1.4,0.3
			c-0.3-0.1-0.6,0-0.8,0.3c-0.1,0.1-0.2,0.3-0.3,0.4s-0.3,0.2-0.5,0.3l0,0C7.7,19.4,7.2,19.4,6.8,19.1z M19.5,31.8v0.4
			c0,0.2-0.1,0.3-0.3,0.3h-3c-0.2,0-0.3-0.1-0.3-0.3c-0.4-5.7-3.2-11.2-6.1-12.6h0.6h0.2h0.1h0.2H11l0.2-0.1h0.1l0.2-0.1h0.1
			l0.2-0.1l0,0l0.2-0.2l0-0.1c2,2.2,3.4,4.8,4.1,7.6c0.1,0.3,0.4,0.5,0.7,0.4c0.2-0.1,0.4-0.3,0.4-0.5c0.3-3,0.2-6-0.2-8.9h0.1h0.3
			h0.7h0.3h0.2l0.3-0.1H19c0.2,2.1,0.1,4.3-0.5,6.4c-0.1,0.3,0.1,0.6,0.4,0.7s0.6-0.1,0.7-0.4c0.8-2.1,1.9-4.1,3.2-5.9l0,0
			c0.1,0.1,0.1,0.2,0.2,0.3l0,0c0.1,0.1,0.2,0.1,0.3,0.2l0,0l0.1,0.1l0.1,0.1h0.1h0.3c0.1,0,0.2,0,0.3,0c0.1,0.1,0.1,0.2,0.2,0.4
			C20.6,20.8,19.8,29,19.5,31.8z M33.3,14.5C33,14.8,32.6,15,32.2,15c-0.3,0.1-0.5,0.4-0.5,0.7c0,0,0,0,0,0.1c0.2,0.6,0,1.2-0.4,1.6
			s-0.9,0.5-1.4,0.5c-0.3,0-0.5,0.1-0.6,0.4S29,18.8,28.8,19c-0.7,0.7-1.8,0.8-2.7,0.3l0,0c-0.1-0.1-0.3-0.2-0.4-0.3
			c-0.2-0.2-0.4-0.5-0.5-0.8c0-0.1-0.1-0.1-0.1-0.2l0,0L25,17.9h-0.1h-0.1h-0.1h-0.2h-0.1c-0.2,0-0.3,0-0.5-0.1v-0.1l-0.1-0.1l0,0
			c0-0.1,0-0.3,0-0.4V17c0.2,0,0.4-0.1,0.5-0.2l0.1-0.1c0.1-0.1,0.2-0.1,0.4-0.2l0.2-0.1l0.3-0.2l0.1-0.2c0.1-0.1,0.2-0.2,0.2-0.3
			l0.1-0.2c0-0.1,0.1-0.2,0.1-0.4c0-0.1,0.1-0.1,0.1-0.2c0-0.1,0.1-0.2,0.1-0.4c0-0.1,0-0.1,0-0.2c0-0.2,0.1-0.4,0.1-0.6
			c0-0.2,0-0.4-0.1-0.6c0.9-0.6,1.4-1.5,1.4-2.6c0-0.4-0.1-0.8-0.2-1.1c0.3-0.3,0.5-0.7,0.6-1.1c0.1-0.3,0.1-0.6,0-0.9V7.3
			c0-0.1,0-0.2-0.1-0.3l-0.1-0.1c0-0.1-0.1-0.1-0.1-0.2l-0.1-0.1l-0.1-0.1c0.7-0.4,1.5-0.4,2.1,0.2c0.2,0.2,0.4,0.5,0.5,0.9
			c0.1,0.3,0.4,0.5,0.7,0.5l0,0c0.6-0.1,1.3,0.1,1.8,0.5c0.6,0.6,0.7,1.5,0.4,2.2c-0.1,0.3-0.1,0.6,0.2,0.7l0.2,0.2
			C34.1,12.6,34.1,13.8,33.3,14.5C33.4,14.5,33.4,14.5,33.3,14.5L33.3,14.5z"/>
	</g>
</g>
</svg>
